<mxfile host="app.diagrams.net" modified="2023-07-18T14:42:51.252Z" agent="Mozilla/5.0 (Windows NT 10.0; Win64; x64) AppleWebKit/537.36 (KHTML, like Gecko) Chrome/114.0.0.0 Safari/537.36" etag="NNhQTaM9QnqnhVAQm-3w" version="21.6.2" type="github">
  <diagram name="Page-1" id="SIbl9-3SGSZ2-j5tfcz9">
    <mxGraphModel dx="919" dy="744" grid="1" gridSize="10" guides="1" tooltips="1" connect="1" arrows="1" fold="1" page="1" pageScale="1" pageWidth="850" pageHeight="1100" math="0" shadow="0">
      <root>
        <mxCell id="0" />
        <mxCell id="1" parent="0" />
        <mxCell id="eHbJ4gl2c6HzNtmVkAhj-11" value="Region (N.Virginia)" style="points=[[0,0],[0.25,0],[0.5,0],[0.75,0],[1,0],[1,0.25],[1,0.5],[1,0.75],[1,1],[0.75,1],[0.5,1],[0.25,1],[0,1],[0,0.75],[0,0.5],[0,0.25]];outlineConnect=0;gradientColor=none;html=1;whiteSpace=wrap;fontSize=12;fontStyle=0;container=1;pointerEvents=0;collapsible=0;recursiveResize=0;shape=mxgraph.aws4.group;grIcon=mxgraph.aws4.group_region;strokeColor=#147EBA;fillColor=none;verticalAlign=top;align=left;spacingLeft=30;fontColor=#147EBA;dashed=1;" vertex="1" parent="1">
          <mxGeometry x="40" y="40" width="790" height="680" as="geometry" />
        </mxCell>
        <mxCell id="eHbJ4gl2c6HzNtmVkAhj-9" value="VPC (10.0.0.0/16)" style="points=[[0,0],[0.25,0],[0.5,0],[0.75,0],[1,0],[1,0.25],[1,0.5],[1,0.75],[1,1],[0.75,1],[0.5,1],[0.25,1],[0,1],[0,0.75],[0,0.5],[0,0.25]];outlineConnect=0;gradientColor=none;html=1;whiteSpace=wrap;fontSize=12;fontStyle=0;container=1;pointerEvents=0;collapsible=0;recursiveResize=0;shape=mxgraph.aws4.group;grIcon=mxgraph.aws4.group_vpc;strokeColor=#248814;fillColor=none;verticalAlign=top;align=left;spacingLeft=30;fontColor=#AAB7B8;dashed=0;" vertex="1" parent="eHbJ4gl2c6HzNtmVkAhj-11">
          <mxGeometry x="35" y="40" width="720" height="615" as="geometry" />
        </mxCell>
        <mxCell id="eHbJ4gl2c6HzNtmVkAhj-14" value="Private subnet (10.0.1.0/24)" style="points=[[0,0],[0.25,0],[0.5,0],[0.75,0],[1,0],[1,0.25],[1,0.5],[1,0.75],[1,1],[0.75,1],[0.5,1],[0.25,1],[0,1],[0,0.75],[0,0.5],[0,0.25]];outlineConnect=0;gradientColor=none;html=1;whiteSpace=wrap;fontSize=12;fontStyle=0;container=1;pointerEvents=0;collapsible=0;recursiveResize=0;shape=mxgraph.aws4.group;grIcon=mxgraph.aws4.group_security_group;grStroke=0;strokeColor=#147EBA;fillColor=#E6F2F8;verticalAlign=top;align=left;spacingLeft=30;fontColor=#147EBA;dashed=0;" vertex="1" parent="eHbJ4gl2c6HzNtmVkAhj-9">
          <mxGeometry x="405" y="85" width="280" height="380" as="geometry" />
        </mxCell>
        <mxCell id="eHbJ4gl2c6HzNtmVkAhj-16" value="" style="sketch=0;points=[[0,0,0],[0.25,0,0],[0.5,0,0],[0.75,0,0],[1,0,0],[0,1,0],[0.25,1,0],[0.5,1,0],[0.75,1,0],[1,1,0],[0,0.25,0],[0,0.5,0],[0,0.75,0],[1,0.25,0],[1,0.5,0],[1,0.75,0]];outlineConnect=0;fontColor=#232F3E;gradientColor=#F78E04;gradientDirection=north;fillColor=#D05C17;strokeColor=#ffffff;dashed=0;verticalLabelPosition=bottom;verticalAlign=top;align=center;html=1;fontSize=12;fontStyle=0;aspect=fixed;shape=mxgraph.aws4.resourceIcon;resIcon=mxgraph.aws4.ec2;" vertex="1" parent="eHbJ4gl2c6HzNtmVkAhj-14">
          <mxGeometry x="83.5" y="135" width="78" height="78" as="geometry" />
        </mxCell>
        <mxCell id="eHbJ4gl2c6HzNtmVkAhj-23" value="Availability Zone (us-east-1a)" style="fillColor=none;strokeColor=#147EBA;dashed=1;verticalAlign=top;fontStyle=0;fontColor=#147EBA;whiteSpace=wrap;html=1;" vertex="1" parent="eHbJ4gl2c6HzNtmVkAhj-14">
          <mxGeometry x="-372.5" y="-45" width="652.5" height="425" as="geometry" />
        </mxCell>
        <mxCell id="eHbJ4gl2c6HzNtmVkAhj-74" value="" style="edgeStyle=orthogonalEdgeStyle;html=1;endArrow=block;elbow=vertical;startArrow=none;endFill=1;strokeColor=#545B64;rounded=0;" edge="1" parent="eHbJ4gl2c6HzNtmVkAhj-14">
          <mxGeometry width="100" relative="1" as="geometry">
            <mxPoint x="-190" y="166.90999999999997" as="sourcePoint" />
            <mxPoint x="-90" y="166.90999999999997" as="targetPoint" />
          </mxGeometry>
        </mxCell>
        <mxCell id="eHbJ4gl2c6HzNtmVkAhj-17" value="" style="sketch=0;outlineConnect=0;fontColor=#232F3E;gradientColor=none;fillColor=#4D27AA;strokeColor=none;dashed=0;verticalLabelPosition=bottom;verticalAlign=top;align=center;html=1;fontSize=12;fontStyle=0;aspect=fixed;pointerEvents=1;shape=mxgraph.aws4.customer_gateway;" vertex="1" parent="eHbJ4gl2c6HzNtmVkAhj-9">
          <mxGeometry x="315" y="210" width="78" height="78" as="geometry" />
        </mxCell>
        <mxCell id="eHbJ4gl2c6HzNtmVkAhj-15" value="" style="sketch=0;points=[[0,0,0],[0.25,0,0],[0.5,0,0],[0.75,0,0],[1,0,0],[0,1,0],[0.25,1,0],[0.5,1,0],[0.75,1,0],[1,1,0],[0,0.25,0],[0,0.5,0],[0,0.75,0],[1,0.25,0],[1,0.5,0],[1,0.75,0]];outlineConnect=0;fontColor=#232F3E;gradientColor=#F78E04;gradientDirection=north;fillColor=#D05C17;strokeColor=#ffffff;dashed=0;verticalLabelPosition=bottom;verticalAlign=top;align=center;html=1;fontSize=12;fontStyle=0;aspect=fixed;shape=mxgraph.aws4.resourceIcon;resIcon=mxgraph.aws4.ec2;" vertex="1" parent="eHbJ4gl2c6HzNtmVkAhj-9">
          <mxGeometry x="131" y="226" width="78" height="78" as="geometry" />
        </mxCell>
        <mxCell id="eHbJ4gl2c6HzNtmVkAhj-13" value="Public subnet (10.0.0.0/24)" style="points=[[0,0],[0.25,0],[0.5,0],[0.75,0],[1,0],[1,0.25],[1,0.5],[1,0.75],[1,1],[0.75,1],[0.5,1],[0.25,1],[0,1],[0,0.75],[0,0.5],[0,0.25]];outlineConnect=0;gradientColor=none;html=1;whiteSpace=wrap;fontSize=12;fontStyle=0;container=1;pointerEvents=0;collapsible=0;recursiveResize=0;shape=mxgraph.aws4.group;grIcon=mxgraph.aws4.group_security_group;grStroke=0;strokeColor=#248814;fillColor=#E9F3E6;verticalAlign=top;align=left;spacingLeft=30;fontColor=#248814;dashed=0;" vertex="1" parent="eHbJ4gl2c6HzNtmVkAhj-9">
          <mxGeometry x="55" y="90" width="245" height="350" as="geometry" />
        </mxCell>
        <mxCell id="eHbJ4gl2c6HzNtmVkAhj-24" value="" style="sketch=0;points=[[0,0,0],[0.25,0,0],[0.5,0,0],[0.75,0,0],[1,0,0],[0,1,0],[0.25,1,0],[0.5,1,0],[0.75,1,0],[1,1,0],[0,0.25,0],[0,0.5,0],[0,0.75,0],[1,0.25,0],[1,0.5,0],[1,0.75,0]];outlineConnect=0;fontColor=#232F3E;gradientColor=#F78E04;gradientDirection=north;fillColor=#D05C17;strokeColor=#ffffff;dashed=0;verticalLabelPosition=bottom;verticalAlign=top;align=center;html=1;fontSize=12;fontStyle=0;aspect=fixed;shape=mxgraph.aws4.resourceIcon;resIcon=mxgraph.aws4.ec2;" vertex="1" parent="eHbJ4gl2c6HzNtmVkAhj-9">
          <mxGeometry x="138.5" y="220" width="78" height="78" as="geometry" />
        </mxCell>
        <mxCell id="eHbJ4gl2c6HzNtmVkAhj-19" value="" style="sketch=0;outlineConnect=0;fontColor=#232F3E;gradientColor=none;fillColor=#4D27AA;strokeColor=none;dashed=0;verticalLabelPosition=bottom;verticalAlign=top;align=center;html=1;fontSize=12;fontStyle=0;aspect=fixed;pointerEvents=1;shape=mxgraph.aws4.nat_gateway;" vertex="1" parent="eHbJ4gl2c6HzNtmVkAhj-9">
          <mxGeometry x="195" y="132" width="78" height="78" as="geometry" />
        </mxCell>
        <mxCell id="eHbJ4gl2c6HzNtmVkAhj-71" value="" style="shape=image;verticalLabelPosition=bottom;labelBackgroundColor=default;verticalAlign=top;aspect=fixed;imageAspect=0;image=data:image/png,iVBORw0KGgoAAAANSUhEUgAAANwAAAB1CAYAAAAlSY+nAAAgAElEQVR4nO2dd3gU1cKH39lNspvspldII43eQxIhIApSRILSBGmK2ECRT73gBQEBQeEKWBABgQsXKRLpiID0joEACSWUJJBCGkk2bbObze7O90fMSkgQUAkC8z6Pj2TnzJkzZ+Y3p/+OIIqiiMRDRa9evXj99deJiop60EmRuEdkDzoBEveO0WjEysrqQSdD4k8gCe4hxGQyIZfLH3QyJP4EkuAeQiTBPbxIgnsIkQT38CIJ7iFEEtzDiyS4hxBJcA8vkuAeQoxGoyS4h5Qa+5bzUsBQWttJkbhb+j77KtosOzITHnRKJG5GkIFXgzuEqWngWxKchMS9czeCk6qUEhK1iCQ4CYlaRBKchEQtIglOQqIWua8zYE0mE8dPHsRoLEcml+Pu6omfTwB2tqo/PO9S4nn6vdKJFd9uoVXziCrH8jW5DH/nBWZNWUBwQCP2H9mJna2KduFP3VWaCos0JFw+S0r6VdxdPWnepDVuLh5/eM7wd3pT18ubGRO/uatr3A2iKFJm0KOwUSAI1b97WdnXuZR4HgAbGwWe7nXwqeuPjY3iL11Xr9dhY2ODTHb3wwrnL8aRm5dd7XdHB2daNgur8ZyBr3Wj69NRvDr4nWrH1m5czqLlc9i7+ezdJ/w38jS5nDx9hHp+wTQIbgKATl/KhYtxlGiLLeEEwN8vGH/fwGpxlGiLORX/KypbNa1bRiAg3HM6/iz3VXCFxQW8PCqK1i2ewNbWjuSrl+kTNYj3Rk7+w/PKy8vR6bSUlxuqHTOLZopLijCZTBhN5Zy9cApnJ7e7Epy2tIR5381k574thLVqR2r6VdqFP8X7o/44PVptMTrd39ttW1RcwDeLZ/H6sDF4uNepdnztpv8xf8lM2j/RmRJtMRlZabw3chIvPPcS8nsQy63M+noSg/qOICSo0V2fs//ITk7H/0phUQGn4n+leePWuLq4ExzY6LaCKykpwmDQ13iszFBGcUnRn0p/9MZlzJjzb57q0J1vP1+Ng70jxcVF/Lx7I+nXrwFQUKjh8K97effNCXz47ifV4jgWs58xE15BZadm2w/Ha8z/+8V9LuGMODo6839vTaRFk1DWbV3JZ19MYPQbExBFkdJSLY4OTkDFYG5BQR6urr+XNmbRzLXUJGyVtnh61K0Wv8JGybABb2FtbfP7OWYT19KSsVc74ObigSD8/vXKy7/BnkM/M/XDubSLeBqDQY/ZbEYURYpLClEq7bD5La6CwnyUCluUSlvL+UXFhaRnpBAS1AhrK2sAyo3l6PU67NX2ZN/IxMZaibOTS5V0lmiLyb6Rgb9PEFZWVoiiSM6NbH7evYGe3fqhUtmjslNXOcdoMuLh5sWnk+ajslMx4ZN32LrjR7o93Qu12sFyPwWFGvx8ArC2rkiPvkxHWVmZJV/Lyw1oS0twsHeiRFvMTzvX0S7sKep4+qBW2wMVpW1qejLOTq442DtVy+fXhr6L0Wjk/MU43hk3mA/e/phWzSOQy+WYzSZS069RbjQQ6F+/2oB8fkEe+ZobBPgFI5ff/nXTaPLQ6kqoW8cXWQ0lPkBhUQFHTxwgqvuLxMYdI+nqJVo1D8fdzZOxo6danuWc+VOJOXWIqK79qsVhNBr59dRhmjcO5cTpIxyNOcALzw28bbr+bu57G04myFAqlKhU9vj5BCKXyykr03P42B6iXmprCbf7wE9EdA0kNT0ZAEO5gc+++IiXR0XRtV8o4z95m5JbvoplBj2ffTmBhcvnIIoiR2P283SvZrw8KopegyJZtnp+lfDW1tao7dTs2LuZvPwcVHb2ODm6oCnIY+QHL7F2wzJL2E7PN+Pr7z6z/H089hAvvtqZN/6vH137tuZ0fAwAx04coN/LT/PmewN4fnAH2nYPYuGyivQYjeUs+O9suvZtzRv/9yJtuwXx084fOXvhNMNGPUd6RgpvvNef4e+8gNFYXi3vBJkMW6UtcpkcO1sVVnIrEAQys6/z5nsvEjWoLS+P6km3fq05fHwPAIv/9yU9Xvy91Fn142KGjYri5Omj9BrUjpwbGYz/ZCTPDgijrEzP7gPbCH8mgOHvvECn55vz6dzxlJVVLZkUNkpUdmqUSltkMhlKpR0qOzXpGak8N/AJXnm7Fy+P6kX3/m1ITL4IgFkUWb91FX2HdWTwGz3oP7wz1zNSq93jjdxs3h47mB4DIxj0Rne69mnF+YtxNb5LV1OukJKWxNTxX+Do4EzcuRMV+SQIKBW22NmquJx4nl37t/LhmBk0btiiWhylOi3HYvbz5ivv06xxKEdi9lJmKKvxeveD+y64cmM5addTiI07zo+bVxAS2MjyNb95zL3yn7//30yDkKZ890U0Mz6ax659W7mUdKH6BUTgt2rm0u+/Jjy0PSu+3cqXny6rVn93c/FkyItvsnPvZt5470W++98XaG+q91dNj/hb5BXYWNsw9p2pLJ+/hToe3qzd+Ls4M7LTCaxXnyVfraNf1FDmLf6MgsJ8fo09zBcLpjHhvc9Ys3gHr7z0NsvXLMDVxY0vP11OXS9fZn68gLmfLMXqtxLzZnLzcpg+50M+mPw6MaeO0LvnIOxsVaxZv5QbednM/3w1y+dvoXmTNoyb8hY6XSmiKFa/DxH8fAP577yNuLvX4d9jZrDi25/Izcvhq4XTGfriG6z+bgfTP5rHouVzOHHm6B2fK4BSoeTdNybw/cJtLPtmEwWF+Rbhi6IZRwcn/jNlEd/M+p5SnZZ1W1dWfXSimR83r+D8xTMs+Wo93y/YhouzO/MWf4bJZKx2vdi44wT4BePq7E63Ts+zc+8WxJuekdlsZunKeQQHNOTVIaNrTHP8+VjMokhQQH1eGTSK0/ExZOdk3NX9/h3c92XDuXnZjP34dQRBIDig4V13PNjYKOjdYyANQppSt44vdTy9SU1PrrERDBXtsytXE5g/chUB/iEE+Idw6yQaa2tr+vYaQod2XZi36FO+XPgJp+KOM2vKwjump0XTNnR68lkEQcazz/Tmxy0rLMfsVfZ88PbHWFlZ0+GJVNZsWEq+JpfjJw9iKDew79B2Dh3dRbG2mMysNPR6Hf6+gdhY2+DnHYCPt3+N15TJ5ChslOw9uB0nRxdaN49AJpNx4OguujzVk5ZNwxAEge6dn2frjmjSMq7dNv3WVtYE1quPtZU1dbx8CfAP5sTpo1zPTCM55QpffDsNk9mE2WzmSlIC7SM63TFPfOr6I5PJ2XNgG5nZ6Yi/ffgA5DI5T7fvTptW7TCZjIS1iuTE6SNVzteX6bl45Swms5kVa74FoKioAK22mOKSIpwcq1bNf961np7d+iOTyXgi7Em+j15Idk4WXh51LMdjTh3mm/+stDQNbmX56vk0btAcL08f2keomfnlBK4kJ+DnE3DH+/07uO+Cc3f1YsbEebQNfwonB2dLm0oQBMxmkyWcWTRVOU9AQJDJLH/JZPIae/Ms55tNlJeXV2lD3Nx+q8RKbkVdT28+mfAVLi5ufL3oU8aOnoogCBhNFdW6W0uJyrgqry+TyaqkRRAESwllbVPxoEWziF6vQy6T4+8bhPw3S4Sn2nfD3c2LUl0JVcvQ6rg4uzJ29DReGzqG5wdHsn3PRl556W30+lKsb7JYEARZRbecyG/38XvpYDKbaoj5t2MmI0ZTOf6+Qdj8lu4JH8wk8i7EBhXV6VdHv0BkeCeCAxsCQpX7EWSy356BgEwmq9Y2M5vMlJeX42DviJ9fEAB+fkH41PVHrbKvEjbp6mXOnD3Bjdxs1qz/LyaTEZ2ulEXL5/DxuNkkp1xh7MdvMKjf67RqFl5jeq9nprHrwE/U8fSh58C2iKKItrSE9VtX0fnJHnd1z3+V+y44KysrvDzq4nzL10qhUKI3lHHpynk8POqw79COKscN5QYOHdtDiyZtSLp6iczsdHzr1lwSACgVtni612Hbrg00DGlGZnY6Sdcu82TbZyxhcvNyiL8Qa/l6m00mlDZK7NVO2NraEXPqCENffJNDx/dQfFNVEyqGKi4nJRAc0IADR3+hfuCde/kaNWiGIAiEh7YnIrQDoiiSX5CHyk6NTqdFr9dRptdhNpuRyW7/MannF0RU9xfZe3A7/XsNo0nDlhw/eYhB/V7H2tqaX2MP4ebiia93PeztHckvyCM1/SpyuZztezZVictkMqItLcZsNuPq7I6rsztuLu4M7v86MpmMrJwMnByc73hvADv3bcFWqeLzad+hL9Ozefva369jNhNz6jD9eg0FUST+fCwdnuhc5XylUol3XV8uJ11gQO9XcHPxoLzcQL4mt1oV+7v/fUGDkKZM+td/sFXaIoqwfM23RG9azogho5n33ae4u3rx2tAxVTrRbmbzzz9gq7Rj1pSFONo7IgL7D+9k+epvycnNwsPN667u+6/wwJxogurVx6euPy8MbY9a5VCt9DKbTaz8cRHrt3yPpjCP9k88Q1BAQ0spdCvOTq4826UPs7/5mI3b1lCqLaZ7595VBJeTm8V7E4Yjl8uxVarIyrnO+Pc/w8uzLm1atmPmVx/RoUdDSvWl2NnaVYk/Nf0qfYY9iVqlRl9Wxjezvr/jPT7XtR//W7OA18b0o1FIU/IKcgn0D+Hzqd9ho1Di4uzKiDF9cXP1ZNP3B2psx1XSr9cwBr/RnYysdF5+aSQjRvfh6V5NUasduJGbxZefLsfW1o524U9hJbei50tPICBgb++Ii5ObJR5f7wDGT3ubf4tvc2THZbp1ep7Jn41h1bolWFlZcS01kVULf6bFbbr7b6ZV03CWfv8V/V7phKYwD73+984WuUxGTOwhnundAmtrGxQ2Svo9P6zK+XK5FX16DmHD1tV079eGAP8QrqZcofOTPapU8zUFeWzctpoRQ0bTNqyj5fei4gLWbV7B92sXEXPqCOkZqXTt29py/NnOzzP9o3nY2CjQlpaw+8BPtH+iM0+2fcZS+1HYKFm7cRkbtq7ireEf3PGe/yr3dbWAwWBgx55NtH+iEy7ObtWOX89MZff+bdjbO9C6eQTHTx4iqnt/jMZydu7ZTNPGoRw7sQ8nBxee7vAsLs6ulJXp2Xd4J0+06YC92pHYuGPY2app2qglJpORI7/uJ+FSHHW8fHjmqagqwjGbzVy8fJZjJw9iMhlp06odLZuGIZPJMJqM7N7/E9czU2kb9hQZWWl4edSlaaNW7Du8E7XKnht52aSmJdM2/CmaN26NIAhk52RyMu4Yz3XpA0D2jQz2HdpJz679UKvtMZQb2L1/G9dSE3F0dKZd+FPU862oPl28fJZDx/fg5xNA984vVMmbC5fiSb52me6dn8fKyprSUi37j/5CaPMn8PTwIvHqJY6dOIDRaKRtWEcaBDexvERXkhM4cnwvder40rxRa84mnOapyK7Y2ChISU1i98GfcXJwpm+vIYiiyJGYfVy8fA5BgGZNQmnTom2NJW5BYT4Hj+6iQ9tncHZyrTj3170kXDlHo5BmKJUVPYWNGzRn78HtuLp6cOnKOUq0xXSM7EpgvRAEBJKuXuLCpXiiuvcH4EZeNnsPbidfk0sdT2+ebNelyvtSVFzAtl820LFdF+rW8b3p/Spj3ZbvCQlqREGhhsKi/JtSK+Bbtx5hrSORyWTo9KXsO7SDhiFNCaxX3xLKaCxn14FtuDq7Ed66/d2+2jUiLc+RkKhFpOU5EhL/MCTBSUjUIpLgJCRqEUlwEhK1SI3DAkp7sPprq0Ak/kEIQkWDXjT/PnVO4u/nD+Zl/B5G2j1HQqL2kKqUEhK1SI1VyuLiYozG6rO1JR5OZDIZKpUKrVaL2Wx+0Ml5ZBEEASen6usJb6ZGwZWWllJWVntrhCTuLzKZDIVCQUlJCSbT7SczS/w1ZDLZHQUnVSklJGoRSXASErWIJDgJiVrkTy/PqRxNqGmR59+B2Wz+bdHn3xv//Yr3UaCmESIpn/5e/pTgkpKSOHbsGCaTCSsrK1xdXWnZsiVeXn9uAZ9eX+GeZWdXsZSmvLycOXPmEBoaSpcuXf5UnAA6na5iRbFDhctVcXExP/zwA40bNyYyMvJPx/socvnyZY4dO1btdydHJ556+ikcHR3v6/VLSkqwtrZGoXi0Z1z8qSrl5s2bmTdvHsnJyRw7doxJkyYxYcIErl69es9xiaJIdHQ0K1f+bjBjNBpJTU39y1/XhQsXMnv2bMvf5eXl5OTkWOwEJH4nLy+PxMRELl26xMyZMzl8+DCJiYlkZGbUylDC1KlTOXTo0H2/zoPmnks4nU5HSkoKkZGRTJ06FYCMjAy6dOnC3r17efXVVyu8IrRaEhMTsbOzo169eigUCsvvV65cQaFQEBQURF5eHvv27aNx48ZkZmbi7u6OIAiMGzcOPz8/dDodN27cwNXVlcTERBwdHfH19bV4l5SVlZGcnIxCocDdzR1tqRYPDw80Gg0//fQTTZs2JScnB1dXV9RqNa+99hru7u6Ioki5wcD1jAzy8vIIDAzE2bnCc6WsrIysrCw8PDy4evUqNjY2BAQEPNKbILZt25a2bdty48YN9uzZw+jRo2nevDmiKKLT6YiLi8Pd3R07OzvKysrw9PREp9ORm5uLra0tKSkptGhRYUuXl5dHZmYmwUFBFBYW4ubujkKhwGw2U1JSwtWrV1Gr1fj5+SGKIjdu3GD37t2EhoaSm5uLm1v1xcqPCvcsuKKiIjIyMujfv7/lt7p169KuXTsyMiq+hhs2bGD16tW4uLiQlpZGu3bt+Pjjj4mPj2fKlCm4ublRWlrK4MGDWbFiBbGxseTk5HDu3DlmzJjBzp07mTdvHgcPHiQ6Opo5c+YQERFBSUkJCQkJzJkzh+7du5OamsqkSZMoLCxEFEU0Gg3e3t4sWLCATz75hJSUFJRKJZ988gnTpk0jNjaWBQsWsGzZMjIyMpg1axaFhYVYWVmRm5vLrFmzCAsLY9u2bfz73//mySefRKPRcPr0aaZPn86gQYP+1sz/J3L8+HE8PDxwdnZGFEWOHTvG9OnTUavVlJaWotFoaNOmDV999RXLli3j66+/pkmTJuj1eubNm8f69evZuXMnLi4uFBcXc/XqVTZv3ky9evVYs2YNa9euxcPDg0uXLtGpUyeioqKYNm0aer2etWvXcu7cOaZPn/6gs+G+8acEl5WVRWhoaJXfK/edvnr1KgsWLGDUqFF07dqVRYsWcfLkSQCOHTuGQqFg7ty56PV6FAoFAQEBjBgxgvHjx9OwYUNcXFw4d+4cQUFBODg4EB8fjyiKPPfcc0RGRtK3b1+SkyvMYufNm4dMJmPOnDkYDAYmTpxI06ZNcXBwoEuXLuzevZsZM2bg7++Po6Mj8fHx+Pv7Y2Njw+zZs3FydGTatGkICEycNJEff/yRsLAwrly5gsFgoF27dnTr1o2BAwdy7ty5vyG7//kcPXoUT09PnJ2dMRgMfPvtt0RGRvLaa69x/vx5JkyYQJs2bQCIi4tDLpczePBg2oSGkn79Otu3b2fKlCnUr1+fxYsXk5mZSWBgIIcPH2bevHnMnDmT1q1bM3nyZE6fPs0HH3xAhw4dMJvNzJ49G3d39wecA/eXe27DFRQUIAgCrq6ult/Ky8stL/OyZcvIy8tjy5YtDB48mLVr1zJw4EAEQcDb25u4uDjGjx9PWVkZ9vb2pKSk4OHhQUBAgKXkS01NJTw8nJKSElJSUuj45JP079cPDw8PSkpKcHZ2pqCggK1bt9KjRw+CgoLw9PREJpPRunVrZDIZGo0GlUpFyxYtcHZ2RiaTERcXR0BAADk5OcTGxvJC7974+vri7uGOk5MTpaWl6PV6UlJSaNOmDa8OH46npycajQYPjz/e8ONRoLJE8/b2Rq1Wk5WVRWJiIi+88AKenp44OTkhCAIREREUFRWRlpbGU089RZ/evfHz9yc6OppWrVoRFhaGh4cHtra2NGlSseHG/v370el0rF+/nkGDBnHw4EFef/11XF1duXTpEj4+PpaP7KPMPQvu4sWL+Pn5Wbzsy8rK+Oqrr7Czs6NFixacPHmSJk2a0L9/f/71wQds2LCBF16oMMjp0qULn3/+OWlpaYwbN47c3NwqX1SArKwsCgoKeOKJJ8jMzKSwsJABAweCIHDxYoWNdkBAABcuXECpVBIYWGEMm5iYSEpKCsHBwZhMJlJTU2nWrFnF2hQqSuCkpCR8fHw4f/48Dg4O1KlTYSCan59PWloabdq0QaPRkJ2dzZAhQ0AQuHbtGnq9nkaN7n7zi4eVvLw80tLSCAkJAeDUqVPUqVMHZ2dnzGYzp0+fxmg0EhQUREZGBsXFxbz44ouWPD579iz+/v7Y2tqi0WiIiYmhdevW6HQ6rl+/Trdu3XiuRw8mfvQRu3btok+fPmi1Wi5dukTz5s0f5K3XGvcsuPj4eIKCKjalSE5OZvbs2SxdupRhw4bRsGFDrK2tcXR0pFu3bnR8qqI72Wg0cv36dQoKCujZsyd9+vShuKgIvU7HmTNncHJysnQHZ2dnU1JSQmhoKJmZmWi1WsLDK4w94+LiLNVQs9mM2Wy2dOJMmzYNJycn1Go1er2erKws/P39LaauKdeuYTAY8Pb2RqlUotPpKCgoAGDLli0UFBTw7LPPUlBQQG5uLm3bVux7cOnSJcxmM40bN/678vwfS0JCAoIgUL9+hauVyWTCYDBgNBqJj4/nf//7HyEhIcjlcjIyMtDpdJbqZWV4vV6PwWBg0aJFnD592tL0kMvlODo6EtWrF+07dLCck5WVhV6vx9fX97GYWH3Pbbjk5GQSEhJYt24dgiDg7OzMrFmz6NWrFwDDhg1jxowZ9O7dGwBHR0fmzp3LTz/9xNKlS/H29ubKlSuMGDGCut7e+Pr6smPHDmJiYti3bx95eXnUqVMHtVpNbm4uPj4+qNUVexFcvnwZb29vPDw8UKvU2NnZMWbMGEwmE/Xq1cPX1xeVSoWVlRXOzs6sXbuW06dPM2PGDC5duoSrqyve3t64u7vj7OzM6NGjUalUlJaW8tFHH+Hh4cG1a9ewt7e3jDulpKTg5eWFj4/P35Xn/1iSkpJQq9XU/62Eax/Zns8++4wBAwag0+lwc3OjVatWANy4cQM/Pz9Uqt/3+uvWrRurVq0iOjoaGxsbnJycqFevHmq1mrCwML7++mtOnTqFXq9HqVSyZcsW1Go19vb2TJs2jVOnTjFp0qRHeiyuxgWo2dnZt10tEBsbS3FxsWVmdL169arWu0WR02fOcO3aNRQKBY0bN8bf3x+DwcDRo0cpKirC29ubVq1aIZfLyc/P5+jRo7i7uxMREUF6ejq5ubm0bNmStLQ08vLyaNmyJVBRugKW6kdqaipnz56lbt26eHl5odFoaNiwITKZjMzMTE6ePImzszMRERFkZGSQmZlJWFgYcrmc3NxcTpw4gdlspmHDhgQGBiIIArm5uVy7ds3SFrx8+TJFRUVVvuQPGzKZDDc3N/Ly8v5wtUBSUhLXr1/nySefBCradBcuXCA5OZmQkBAEQUClUuHj40NKSgoFBQWWoQCA69evc/78eQRBoKioiFWrVrFo0SLc3d0xGAycOnWKjIwMVCoVzZo1o27dii3Izp07R1JSEo0bNyY4OPihnd0ik8nu+GG+Z8FJPHzcreD+CmazmV69ehEUFIRCoeD48eO8+OKLvPnmm5b2/qPO3QjugVmdSzxayGQy3nnnHY4dO4ZMJmPSpEk8/fTTWFlJr9jNSCXcY0BtlHASd1fCSctzJCRqEUlwEhK1iCQ4CYlaRBKchEQtUmMXkrQi+tHi5m2eped6/7ibvK2xl1Kn00m9WY8QgiCgVCopKyt7LKZPPSgqJwb8EVKV8jFCcrV/8NRYpTSbzVIJ9wghCAKiKGIymSTR3UfupkoplXASErWIJDgJiVpEEpyERC3y2AlOp9NJOwNJPDAeK8EVFRUxduxYfvjhhwedFIm7IDU1lb1791JeXv6gk/K3cc+CM5vNZGVl8eWXXzJ69GgyMjIsx3Jycvj444/p3bs3r7/+Onv27KmxNBFFkV9++YWhQ4fSv39/5syZQ3Z2do3Xu379OuPGjaN3796MHDmSo0eP1tiDajAYWLduHQMGDOCll15i4cKFFBYWVosrJiaGtm3b/uF9AKSnp/P555/z0ksvMWDAAKKjo+81qyTugpUrV9KxY8caxwd37drFjBkzLFYYjwL3vFgpKSmJf//735YlPCUlJQBotVpmzZrFyZMnGTFiBBcuXODVV1/lhx9+sPiDVHL+/HkmT57Ms88+S4MGDViyZAmlpaVMmjSpSjiNRsOHH35Ibm4uQ4YM4ddff+Wtt95i5cqV1UxnDh06xNy5c+nXrx+Ojo4sW7YMURQZOXKkJczhw4fx9/fH09Ozyn0YDAa0Wq0lXEZGBsOHD8fe3p5+/fohl8uxt7e/16ySuAsaNmzIoEGDHpsZMPcsOLlczogRI9BqtfznP/+xZFRaWhr79+9n4cKFhIWFodVqiY6OZtOmTdUEN3/+fHx9fXnvvfewt7enrKyML774oprgzp07R0xMDFu3bqVBgwY8//zzNGvWjAMHDlQT3PLly4mIiODtt9/GysqKjIwMli5dWkVwP/zwAy+88AIqlcpyHyUlJVXs0AG2bt3KuXPnOHnyJN7e3sCjPWh85coV9uzZw4ABA3B2dkar1bJ69SrCwsJRqVScOHGC0NBQli1bhpOTE2+88QYuLi5AhW3i0qVLSU1NpWPHjvTq1QsrKyvi4uKIjo5GLpfTp08fi01GTZSVlVneo9jYWDZs2ICrq+sdLekTEhJYu3YtOTk5tGrVihEjRlBeXs76detJSUmpCCTAiBEjarQ5TE9PZ+XKlVy7do1GjRrxyiuv3Pc9FO65ShkYGEiPHj0sG29UUlhYiNFotPgQqlQqmjdvTnp6erWXNSYmhsDAQBwcHBAEAR8fnxq3Oc7OzkapVNKgQQMA7O3tCQkJITs7u1qc58+ftyzvl8vlBAQEkA9EoGsAABK6SURBVJmZaal+VvpphIeHIwiC5T5unYpjMpk4d+4czZs3JykpiXXr1nHs6LFq1dNHCZVKxddff83Zs2eBig/dN9/MRxAEkpKSmDlzJgMGDCA9PZ1169YRFRWFRqMhLy+Prl27sn37dvR6PfPnz+fo0aNs3bqVfv36odFouH79OoMHD77tvgGnTp1i0aJFQIV3ZZ8+fYiPj2fPnj3MnDnztmnOyspi9uzZXLt2DaVSyZdffsnkyZMxm82kX0/n0uVL7PxlJ19//TW5ubk1xjFy5EjOnTuHg4MDixcvZubMmRgMhr+Ym3/M37b+3WAwVJscW2muWl5eXuVrdePGDWxtbS1/29jYIJfL0Wq1Vb4wOp2u2lfOwcHBMifwZq//goIClEql5e/Kf5eWlqJWq1m8eDHBwcE0bdr0jvdRXFxMYmIiy5cvx87Ojh07djBw4EA++uijKul+VPDy8qJJkyYcOXKEDh06cObMGby8vGjevDmZmZmUlZWxZMkSIiMj2b9/P0OHDiUmJoa0tDTy8/NZuXIl9evXJy0tDZlMxvDhw+nQoQMTJ05EEARGjBjBwYMHadeuHdevX7d8WD09PS1pMBqN/Pzzz4SEhLBmzRpMJhPjxo0jMTERqCiNKsXg5uaGq6sr06dPx8vLy/L79u3bmT59OuPGjcNoNPLWW2/RtGlTGjZsSElJCbm5uZjNZmxtbfHw8ODLL7+07G/g7e3N4cOHKSkpsZTe94O/TXByuRyj0Vil5CkrK8Pa2rqaiUyld2QllVOObi1trK2tq1k9GAwGFAoFMlnVwlmpVFb5OhmNRgRBwM7OjvT0dA4cOMD7779/x8mllURGRjJ//nxkMhktW7Zk+fLlDB8+nKCgoLs6/2FCJpPRvXt3li1bxtixY9m3bx+9evWyfDxtbW3p8JuXZEREBEajkezsbM6fP4+zs7PFONbX15f09HRu3LjB2bNn2b9/P1DRvm/evDkmk4nOnTtbeh1vrsrrdDqys7Np27atxRYxLCzMIriePXtaOk/ef/99Ro8ezcmTJ/n8888t/qU3f6wrmwVLlixBJpOxbds2xo8fj9lsplWrVsyfP5+cnBxGjRrF1atX0el0hIaG3vfJ3X+b4Ozs7BBFkYyMDIKDg9Hr9Zw/f54ePXogCAJmsxmj0YiNjY3FubfSnzArKwsnJyesrKwQRdEiKkdHR0pLS8nKysLLy4vS0lKSkpLo1q2bZZcba2trZDIZ3t7eZGRkYDQakclkpKWl4ePjg1wu59ChQxiNRosD9B9hY2ODg4MDZ8+etQjb1dUV0Wx+pNtxLVu2pKioiH379pGYmMjYsWMtx0wmE0VFRTg4OJCdnY1MJsPe3h6VSoVOp6O0tBSVSmXZL9DKyooRI0YwZswYoGKOoVqtxsbGhv3791cp4VasWAGAlZUV1tbW5OTkABVt5pt7J3fs2GH5+Lq5uXHhwgWmTZvGgAED6NGjB0uXLuXnn38GKly433//fd59912LY3ZUVBTt2rWzlHAAAwcOZMCAAcyZM4cDBw6we/fu+5nFFfd5rycUFxcTHx/PhQsX0Ol0xMbGUl5eTt26dQkJCWHixIm88847nDhxguzsbKKiogBYtGgRWq2Wt956i+HDhzN58mSio6MJCgpi1apV9OjRA6iwUl+8eDHvvPMODRs2xMPDg0mTJvHyyy+zb98+jEYjHTp0IDMzkxkzZjBw4EDat29P3759WbZsGWFhYSgUCn7++WeGDBlCaWkpR44coXv37lW2Qbr5PkpLS4mNjcVoNNKoUSNCQ0NZu3YtK1euxNfXl2+++YbgkJA/veHkw0D9+vUJCQnhgw8+ICQ4hICAAMuxkpISxo4dS9++fdm8eTNqtZoWLVrg4ODAf//7XxYtWkR4eDiHDx+mY8eOtGnTht27d9PxySfx8fUlKSkJf39/mjVrZumEuhWFQkGDBg347rvv2LhxIwaDgVWrVlmqd7fmvU6nQ6vVEhQURG5uLgkJCUBFE2Lu3LnI5XICAwM5evQoIb89u5v7HZKTk9Hr9Xh4eFBcXMyePXv+7iytGbEGSkpKxIKCghr/27lzp6hWq0WFQiEKgiAqlUrx2WefFTUajbh7926xXr16op2dnejq6iquWLFCzM/PFwsKCsSePXuKHTt2FJOTk8Xc3FxxzJgxoqOjo6hSqcSoqCjx4sWLYkFBgbhx40bRw8ND3L17t6jRaMTNmzaJderUEe3s7ER3d3dxw4YNYn5+vhgTEyPa2dmJ8+fPFwsKCsSUlBRx6JAholqtFu3t7cXhw4eLqampYlxcnNiwYUNx3759t70PmUwmKpVKsUePHmJBQYGYnZUtDh06VFQoFKJKpRIjIyPFs2fP3jZP/un/FRYWiuXl5WJhYeEfhps5c6Yok8nESZMmiRqNRiwoKBB/+OEHsU6dOmJUVJRoa2srurm5iT9GR4sajUbMy8sTP/74Y9HBwUG0s7MTIyMjxTNnzojJyclir169RLVaLarVajEwMFDcsGFDjdecPXu26OfnJxYUFIjJyclip06dRKVSKQYFBYmTJk0S27RpIyYmJlY7Ly0tTRw2bJioVCrFOnXqiB2f7Ch6e3uLly5dEsPDw0WZTCba2dmJdnZ24hdffFHt/Pz8fHHUqFGira2t6OzsLA4dOlTs1KlTjde6l3y+EzUuQNVqtX9p+lN+fj62trZVOhhMJhNms7lKe06r1VJaWoqbm5ulvSCKYrVOFrPZjEajQa1WV7HBrqyS3kxxcTEGgwEXFxcEQWDTpk0sWLCANWvW3HNjuHKMsbJN8bBS2ZYtLS39w2qxKIqWPK18Hjt27GD8+PGcOnWKgoIC1Gp1tTZ5aWkpOp2uyo5KUPEsKi3Sb21zV1K5FOzmOIuLi1EoFNjY2GAwGP5weCA/Px+lUolSqbQ0We4WURQpKipCoVCgUCgwGo1/ybRWEIQ77v5zX1w6a3qx5XJ5tR1EVSpVtU4MQRCqZVplO+pWbhUbUG2AWqvVMmzYsD+1DdLDLrR7RRCE2/bCVu4jURN2dnbVhomg4lncacKATCarJsabz7mTgG5+1+51K2lBEKp0tNSGQ/R9KeH+SVSOwz3K2wXfibst4WqisLCQ9PR0y/iqxO15YCXcP4nHWWh/B46Ojvd99sXjxGO1WkBC4kEjCU5CohaRBCchUYtIgpOQqEUkwUlI1CI19lJaW1tLG+k9YshkMpRK5SM9H/RhoEZVabXa+74uSKL2kMlkODo6UlhYKFmd30cEQahxoevN1Cg4g8Eg7YD6CCGTyTCbzRgMBslR+z5yu+lrVcLUQjokJCR+QxKchEQtIglOQqIWeSQFV9lekZD4p/FICu6XX35h/vz56HS6B50UiTtQVFTEoUOHqnjcPMrc82CbyWTi4MGDrFmzBhsbG3r37k3Hjh2rjduZzWbi4+NZsmQJAJ06dbJ4Ft5Kbm4uK1as4PTp07Ro0YJBgwZRt27dauHMZjNHjx5l1apVKBQKunfvTpcuXaqsCBBFkWXLlhEREYFCoSAtLY0FCxaQlZVFZGSkxShW4ndEUWThwoVotVr+9a9//e3xb9y4kV9//ZWJEydWW2OYkJDAyJEjWb9+vcUO8VHmnku4Q4cO8emnn+Ll5YWHhwdTp05l165d1cIdOHCAIUOGYGdnh5eXF5MmTWLJkiXVxoFMJhPTp0/n+PHjhIWFcebMGd57770a/eS3bNnC6NGjcXV1xdnZmY8++ohNmzZVGcy9dOkSiYmJhIeHk52dzZtvvklOTg4tWrRg/fr1fPHFF9KQRw14eXnh5+d3X+J2dnYmKChIWirFnyjhoqOjadu2LRMnTsRsNlNUVMSCBQt49tlnLWH0ej2bNm2iVatWTJs2DWtra4xGI3v37qVv3764u7tbwqampnLq1Ck+//xzIiIiOHHiBGPGjCEmJobIyEhLuJKSElatWkXHjh2ZPHkycrmcwsJC9u3bR7du3SxfztWrV+Pl5UXLli1ZtmwZWq2WKVOm4OPjQ6NGjZgxYwbvvvtuFauGxx1BEPDz87N85ERRJC4ujsOHDyMIAvb29tja2hIcHEx+fj6dO3cGKqruVlZWdOrUCYA9e/bg5OREaGholfi9vb0xGo2W2k12dja7du2qZm33OHDPJVxCQgJNmjTBxsYGpVJJ/fr1SUhIqFLKFBUVkZmZSdeuXVEqlcjlcrp06YJGo6nmYBwXF4ebmxu+vr4A+Pn54eLiwrlz56qEu3HjBrm5uTz99NMW49j27duTnZ1taavl5uayf/9+evbsiVqtJjY2Fj8/P3x8fIAK1+iysjKphLsFURTZs2cP27ZtAyqcsUeOHMnp06fZvn0706ZN45dffuH8+fNMmTLF4jHzxRdzmTJlCmVlZZhMJj766CPi4+OrxR8bG8vatWvR6/VoNBrGjx/P3Llz2bBhA1OnTrV4xzwO/CmbvJtLB5VKhSiKFm9CqDCA1ev1ODk5WcK5uLhgMBiq9R7m5ORgY2Nj8ZNQKBRYWVlVE6ZOp6O8vLzKF9HJyQm9Xm+ZPRETE0NZWZnFfzIvL88iZKhY/a1QKB6rB3yviKJIQkICDRo0YOnSpZw8eZLRo0czY8YM0tPTKS8v5/Tp04iiiFZbSmFhIefPn8doNFJWVkbTpk3Jzc3FZDIhCEI1L5qrV69y5coVVq1aRWBgIIsXL+arr756QHdb+/ypzTxunh5UmbE3G7hUGsPc3EtYXl5uMQm9mUq3pMo4zb8Zrt5qZiOXyxEEoUpvVqXLkkwmw2AwEBMTQ3h4OHXq1AEqTGVuLs1EUcRsNtdoPiRRQaVpa3p6OrGxsZw8eRKz2WzZ18HLy4tNmzbRtGlT6tevT0pKCmfOnCEjIwNPT0+sra0ZM2YM+fn5yOVyFixYUCX+lJQUvL29qVu3LgqFgjZt2jxW1ft7FpyDgwO5ubmWKmRWVhYeHh5YW1tbflMqldjZ2XH58mXLeRcuXEClUlncncxmMzKZjLp161JUVGTZLkqj0aDVavH397eEEwQBlUqFQqGwWF9Dxa4vTk5O2NjYoNFoiImJYcKECZbjHh4epKWlUVZWhkKhQKvVSoK7A6IoUlZWRkFBAa+99hpqtZoPP/zQ8gEMDw9nw4YNGAwGIiMjCQkJ4eTJk1y8eJGePXvSuHFjPvvsM8rLy5HL5dUMXG+1xH/c5nbes+CeeeYZdu3aRZs2bTAYDBw5coShQ4diMBj45ZdfLFW6Jk2asGXLFjp16oRCoeC///0v4eHheHl5kZOTw+bNm+nZsyfh4eHo9Xp27NhBt27d2L59O2azmaeffhqdTsemTZtwdHSka9euNGjQgC1bthAREYEoimzcuJHevXtjb2/P6dOnsbKysvjcQ4Uf/aRJk9iyZQvNmjVj9erVNGvW7K73F3gcEUWRnJwcGjRoQIcOHbC3t8fFxQWdToetrS1du3ZlyZIlHDp0iIEDBwIwfPhw9Ho9vXr1wsbG5g97O+vVq0dmZib79+8nODiYjRs3PlbjpfcsuIEDB3Lx4kWLb3zbtm0ZOHAgBoOBLVu2UFJSQt++fRk+fDgXLlzg/fffRxAEgoODGTVqFFZWVmRmZvLdd98RGhpKq1atGDlyJAsXLiQ6OhobGxvGjRuHvb09eXl5rF69Gn9/f3r06MHYsWP54IMPGDNmDCaTiYiICAYMGIBcLmft2rW0bt26ik9h586diY+PZ+7cuVhbW+Po6Mgnn3zySO6A81ep3PmoskqZmppKVlYWCQkJnDlzhmeeeYZJkybRokULvL29cXR0xMPDw7ITjVKpJDAwsMa4b55FHxwcTI8ePZgxYwYODg40atQIhULx2GzIWKMvZeXupn+ERqPBbDZbHI6horPExsamSuaVlJRYnJBvprKaV4nJZCIjIwN3d/cqVT69Xl/lgYiiaOlQqeyUyc7OpkuXLsyaNavK8EQlpaWlFBUV4eHhcVdLKB41ZDIZbm5u5OXl3bYKV7mDkSiKvPzyy0RFRdG/f39MJhOTJ0/mxIkT7N271xLWZDJZ2u3l5eXIZLLbjrPV5K5cUlKCKIrY29vX6KD9MCKTySw94rfjTy/rrsmFt6bG7+3ci28NK5fLq/QoVnLrgxAEoUrvJ1RsANKhQwfC2rSp8Vq3cwaW+J1KsZhMJpo1a0Z0dDTJycmWTU/efPPNKmFvFtedHItrcle++b14FMR2t/zpEu6fhE6nQ6fT4eLsDI9J1eReuJsS7mYKCwu5fPkyaWlpODg44OvrS1BQkGS7cQfupoR7JAQn8cfcq+Ak/hx3I7jHr0EjIfEAkQQnIVGLSIKTkKhFJMFJSNQikuAkJGqRGnspJSQk7g9SCSchUYtIgpOQqEUkwUlI1CKS4CQkahFJcBIStYgkOAmJWkQSnIRELSIJTkKiFvl/xGU2f4402+0AAAAASUVORK5CYII=;" vertex="1" parent="eHbJ4gl2c6HzNtmVkAhj-9">
          <mxGeometry x="80" y="465" width="220" height="117" as="geometry" />
        </mxCell>
        <mxCell id="eHbJ4gl2c6HzNtmVkAhj-72" value="" style="shape=image;verticalLabelPosition=bottom;labelBackgroundColor=default;verticalAlign=top;aspect=fixed;imageAspect=0;image=data:image/png,iVBORw0KGgoAAAANSUhEUgAAAOUAAAB0CAYAAAB68/XwAAAgAElEQVR4nO2dd3xUxfr/39uyJZveO0kIJJDQyQUpAqKA4L2iiICiIvhTga8dwSsIolhAQQWpojQF6aEIghSpoSRAQkhIAoE00ttudjfJ7p7fHzErMSD9EuG8/+BFzs6ZM2d2nynPzHweiSAIAiL/SGbOnElOTg5ffvnl3S6KyG1gybFskvJ1SO92QUREROojGuU/GEEQkEgkd7sYIrcZ+d0ugMjNIxrlvcULHf0BsacUEWl0XLWnNFdD4bn/ZVFEbpRmvp3Ju7CTS8l3uyQiV0IiBe/m15++UF9de9/VvK+iUYqI3Bo3apSi91VEpJEiGqWISCNDHL6KiNwhbnT4Wsd90FMKpJ47w+nkEwCkZ5wlISkOQbDeltzPpiex98CvtyWv+4m088ns3rftip+VV5Sya9829JW6/3GpGge3dZ1Sp6/gxzULST9/lrrls3atO/PkY8/w1YJpyGUK3ho96XY+8ppYrQIbtvxEcUkBn0+Zz5Zf13AhM50ZHy5EobCzpbNYLByLP8jK9d9TWJxPpw7deGHoGBwdnP42/zUxy9m8bRVHfrtwW8ttNBkACWqVusFn1TXVTP70Dcw1NUhkMlqEt+bR3gPxcPdCwq2tW1Ya9KiUamQy2XWnX7Xue1JSEwGwCgLSP778NlHRDHr8OZR2ygb3bdy6ip/WLuLE77kNPjublsTEaWNZ/M16WjRvfUPlt1gtTPrkdVxd3Bn17Gs4O7kCEPPLKg7G7kGgdmAoCFY83L0ZOfw13F09G+STlXOBBUu+xMvTn7Gj3v2frAfXeV9va0+p01ew8ZefKSkrwsHBCQcHJ1QqFRKJhEC/JgQGBN/Ox91WUtISeXfKy9gp7OjY9gFOJh4j91LmXSvPZ1+9z6ez/nvFz8rKS1i7eQWGKiMalYZV677nrfdfxFBZeUvPrDHXMPqdYSSlnLzueyRIUKrUaB2csAhWNv+6mhqLGa2DEyqV+habiBvnWPxBlq6cy6r1P5CUcsp2XalU4+TkjJOjC/b2Duzcu4UdezZjNBoa5CEIAr8f3MGGrStZsOQLzl9M+5+UfWtyAdP3nrszO3qGD36Znt362v62Wi0EBYQil8mxClbiTsYik8k4k5KA2VLDv/sOxtXFnYQz8Rw4/BtKpZpe3foRHNSUI3H7yS/I5dGHn0AuVxB38hCVhkoeiO6BVCrj+MlDmM1mOrR9gL0HfuV08gmUdkp69xhA86Ytr7vMGRfTkUgkvDN2Cp4ePpRXlKJR22M2mzl8bC8ODs60iewAwG+/b0Uuk9Ojax8ABCDuVCwHYnfh6x3AgEeeRK22p6Aoj0NH9xIcFMbB2N24OLvycM/HbC2zIAgcjT/I8ZOH0Kg09Os9EA8Pb+JOHOZA7G4Alv+8gB5d+xDg16ReeZ0cnHn+6VeIbt+V7bs28vp7L6A36LC316LX69hz8FfOZaTg5elLv4cet/UYB2J3UaEr59GHnwAgMfkEefk5tGrRnq071xF36jDrt/xEQlIcwwaNQiKRsO/wb5xOjsdR68xjfZ+y5QWg0djz7FMv/VGHaRw6uocxo94lLCSC6uoqYo/vI+5ULDKZnIe6P0rL8Po938nTx9l3aAfenn4MeORJNBptg++mpqaGoycOcCz+IJ4ePvTq1hdvT78G6QRBYPP2NYSHReHm4s6RuP08EN0DiURC34f+Q9+H/gPAvkM7WROzlKefGIGvd0CDfAzGSmLj9vN4vyGs3bycfYd2Etqk2TV+QbePO2KUFqsFs9kMgFQqxWw2s3XHOhRyOW1b/Yttv21gzcYlGIwGWoS35l/tu5GQFMer7wwhMqIdxcUFLF01jwWzVnPmbAKLV3xDi+ataRoSzhdzPqSq2kRE81Yo7VQsWDKT1i07kHY+mS+//ZCoFu04fyGVTdvXMP/LlQQFhF5Xmb09fcnJvcj3P87hjVcm4ujgjFQqxWCoZN2mFQT4NbEZ5bJV87BTKG1GmV94iRFjH8fFyZWMzDRij+/jsw/mcS4jlXcmjUKjtsfFyZWcvCwSkuKYPP5LlHYqVm9cypTP36RNZEcKiwuY+/0MdqyN52j8AbJzLwICy1cvICS4eQOjFBAwW8zU1FRjMFRir9GikCsoryjj/Y/HsnPvFsKbRXL+Qirzv/+CX9fGoVKpWbNxGRmZaTaj3L1vG/GnYnn95ff5ac0i9PoKduyOIdbRmcEDX+C7ZV/zxZzJdOrQnczsDOYs/pw9GxOuaDx/ZcuOdUz5/C2iItqSX3SJeYunc+jXc7g41xp1SVkxw1/pj6uzGxeyzrHv0E5mTfu+QT4r1y1m+uxJdGjzAKnpZ9i0bTWzP1uGh7tXvXS5ednEJxzhxWfGYjAaWLdpOa+/8j4yyZ9D8dKyYhav+IamwRG8NPz1Kw5LS8uKSUyKY/bnyykozif2+D6e+s9wtPaO13zn28EdcfQsXDKLNyeO4M2JI9i175crptFqHfl1bRwxKw7QJCCUcZP/H4/1GcyCmT+zdskelHZKDh3ZQ7/eA6ms1JOcmkh5RRlxp2JJz0ihqDifCl0Z5y+k8sC/evJwjwH8ujaO5fO3sHbJbip0ZeQVNJyvXI2IZq147ZWJbNq+mj5PteeHH+eg05df170KuYJvp//I3s1JvPfGpxw7cYj0jNptNgqFgndf+4jdmxL59IO5xJ2KRa/XUVJaxMatKxn57OssnLWWOZ8vR2mn4ucNSxj70gS6/KsnnaN7smNdPF2iezR4ZmlZMTPnTuXZV/rz0RfjePmFt3BwcCIp5SRxp2JZuWg7MSsO8MOcGMp1ZSxfs/Bv3yE0uBm/rDmGr08QX368mO1rjnMpL5stv67hv299xoKZq5kzfQUVFaVs/GXVddVLl3/1ZOe6eH5cuI05ny3H28uP/Yd/s30ulUj45tOl7N2cxMS3pxOfEEty2ul6eRgMlcz+7jNGv/guX3+yhO++XkdO7kXSMlIaPC8p5SQ6XRn/eXQIrSM7UFxaSGJSfL00W3es4/zFNKZ/OP+q88T9h3fh5emDt6cfzwwaRVLKSbJyLl7XO98KL3T0Z8aAiDvTU7aJ6kiLP4YpTa7SU3Xt9BBNQ8IByCvIJa8ghyPxBxj9zjAACoouUVpWjIebJxHNIklKOYlVsKJRawgOCuPYiUP4ePnj6OCMr7c/To4uLFk5l4SkOHT6cnT6cszmmusus729lpeff5MeXR5h869rmL3oMwRg2JMjr3mvi7MrXTv1QiKRMOjfw1m4dCalZSVIJFI83Lzp2PYBZDI5YSER1NTUYLFaMJmMXMw+T3lFKcdPHEIQBAqL88jMOX9d5dWo7HmwyyNIkJCSmoi7mydymYy088kE+gcT0qTWF9+6ZQdcnd1IPBN/jRwbUlxSSH5hLlt3rOW3vVsQBCtGo4HcvKzrul+t0rB+y4/EHt9HWXkJeQU5VOjKbJ87ObrQo2sfJBIJA/sPZfbCTygpKUSjtrelychMp6DwEjG/rGLfoZ3UmKspKimguLig3rPMZjNHju/DxdmduJOxlJYVo7V3YN73M1gwazUA2bkXmb/kS4Y8MYLQJldeqxAEgRVrFuLl4UvimRNUGnQYDHpOJBwholnUjVbhTXFHjLJzxwfrzSmrq6sapFFe5vmUSms77GcHvcSjjzwJgEQixcXZBZlMziO9/sP2XRtJSTtNl3/1JKRJc3bs3oSXpy8tmrfC3c2Lz776L7/t3cqbr04i0D+EN98fwY2e3lYqVbRq2Z6w0AhKS4vYuWczwwaNBImEmr8xcKlEamt1LVYLMpkMmUyG1SogkWD7TCKR1P5f+PP622M/JDws0paXu6vHdZVVpVLzr3ZdiW7fldz8LNZtXkHfXo839L5KwGq1olKqbWWoqbm+xkoiqf3no/dn43LZPNLDraG38q8IgpXVG5fyzYJpTH73S9zcPPloxri/5C+pV29SmQy5vP5PUiqT4aB15NWR4+jYtkvtNakMd7f69VRVbWLX/m2kpicx9KVHbNfPpicxtfASHm6evD7heRwdnBn8+AsNnlNHUsopTiQcAWD7rg2265u2rWbYoFHXfO9b4Y54X28Wby8/Av1DiEuIpbq6CjuFHeUVJVRW6gFo37oTmdkZ7Du8k4ceHEBkRFvOnD3FwdjdtImKxk5hR0JSHJERbYlu1xVdZQVGo+GGPH8HYnex9+AOLmadIyX1NJk5F2geFolcrsDVxZ24U7FkXExj+66NpJ47U+/egqJ81m5azrmMs8z57jPc3byv6Ii4HK29I8FBYezevw2LxYxcJqOktBC9ofad1SoNFzLTuZCZTuUf167GY32eIvlsIucunCUsNIKMi2kcPraX7NyLbNm+hrLyEnp2rW0kfX0DycnL4kTCUY7E7Wf9lh9t+UgAi8XMxazznMs4i6urB77eAWzdsRZBsCKTSiksysNgvLaX12w2k3PpIlEt2/PAv3oiWK22ZZ46SkqL+HnDD5zLOMu872fg5uLewPHSJCAUB60jZ86eQhAEZH/U018b+vhTR7CYzexcf4Ls0xayT1vYuuoIMpmMLb+u5ecNSzh+6hCP9XmKCl0Z6RkpXMhMr+d9FQSBn9Z9R9PgcE7tz7Pl8+2Mn0g8E8+FrDu7m+aOeF9rG1YJEukVbP2y6xKJBC5Lo7RT8sXURXwy8z1GjxuG1l4LSHhr9Ae4u3ni5eGDv28gl/Ky6d75Iaqrq1GrNRhNRjq06QzA4MdfYObcqYweNwwkoNZobIWSSKRg662kV5xL1A5tZqJRaTBVmfD19ufZp15CIVfQs2tftv22gVffGYpGrUWj1l72LhDg14QlK+eycOlMcvNy+OCd6fj7BnGpIIc/ukTbe9eNCpydXBkxbAyffvU+JxOPolKqqKmp4eOJs3FzceehB/uzfXcMY8Y9w8R3ptO544O2skql0nr5hgY3p3nTlqzesJR3X5/Kv/s9zUdfvIubqweVlTqGDRrFQw8+CsDj/Yaw/bcN/N+E4ThoHQlt0gyL1QJIkEpldGjzAHO++wxnRxfWLdvLqGdfY/rsDzhweBdyhQKL2cyMDxfW88BeTt37yeUK/tW+G9t3bWTMuGEoFHZUGvRIpH/WRWBACCvWLOK75d+QX5DL+Nc/JigghOLSIiTU9qJqlZoJb3zC3MUziD2+H4Vcgb29lmnvf4P9Zc6mH9cuIqJZFEH+IbYyRLZoS8vwtuw7tAONRktNjZnVMUtZt2UFAC5Obkx4fRrt23QCahuJQ0f20LNbXzzc/nQitYnsgKeHN6s3LOHd1z664nvfTm7rNjurYKWyUo9apWkwPDAYK5FKpKhU6j9azNre4E8EqqqqKCjKp6rKhK+PPyqlGqlUiiAIGIyVWCxmHB2cEQQBvV6HIFhxcHBCIpFgtVopKy9Bb9Dj5e6N2VyDUqlCLldgMhmxCgIada3BWa2WevMWqF220VfquZSfg7OTC67ObsgVCiRIaudSJhO5eZn4egf+sRtIgr3GHqPJiNVixiJYKS4uxMvTF5VShVQqxWq1UqEvx1HrhFQqxWIxYzAasLfXIpXUvld1TTUlJYUYTUa8PH1QqzVIJbX3lleUUaErw8fbH7vLhvuCIFChK0dr74BMJkNAwGCo7b3sNVosFjNGk5G8gly8PHyw19gjlf7pgTSZjBSXFuHo4ITSTklVdTVaey0SiYSqKhOX8nNwdHDG1cUNq2ClprqawqJ8LFYLnh7eqJTqKzZsdXWotdcilcqwWq3oKyu4lJ9DgF8TzGYzapUahcIOU5URs9mMIAgUlRTg6e6NWqX5s950ZTYPuCBYMVVVcSkvG6lUirenD8q/lEGnr0Amk6NRa+qVyWispMZsRqVU/dH4/IkECQo7O2R/1I3VaqVcV4ZW44BCoahX3zp9BXKZHI2m/u/m77jZUyLi3lcRkTuEuPdVROQeQdToERFpJNR5X0WjFBFpJGxNLhCVB0REGiNX7SmlMrC/stdbRETkerjJIzJX9b6KiIjcHcThq4hII+Oqw1er1Ype//fbu0T+mTg4OFBZWYnVenskUUSujqPj9R/3uqb31Wq1UlZWdrWPRf7BaLVadDrddW9MF7k5pFLpDRml6H0VEWmkiEYpItLIEDcPiIg0EsSoWyIijZSb7ikvXLjA3r17MZvNKBQKgoKC6Nq161VPdN8ogiCwZcsWjh07xtSpU29LnnWkpaUxb948XnrpJSIiIm5r3vcCGRkZ7N69mystYQ8aNAhnZ+e7UKp7n1ve+7p27Vp++OEH/Pz8KCsro6KigqioKL766iv8/P7+1P3VmDJlCg8//DBdunShpqaGY8eOkpaWfrNFBGqNOyYmhry8PF5++WUkEgnJycns27ePkSOvrb9zP3LixAlWrlxJdXU1+fn5ODg44OTkhFwup3///nfcKDMzM/nyyy954403CA5uvFrBt5s67+tNGaXRaCQrK4uePXsyZ84cqqur+f3335kwYQLr169n9OjRyGQydDod586do7y8HD8/P4KDg5HJZJSWlpKWlobJZCIkJAStVsu5c+fYunUrPj4+uLq6EhoayqBBTxEYGAhATk4OZrMZqVRKZmYmbm5uhIeH28pUVFREeno6SqWS4CbB5BfkExISQmJiIps2bcLR0ZG4uDhatGhBVFQUS5YsoWXLWl1Yk8lEcnIyOp0ONzc3IiIikEqlFBcXk52djZeXF+fOnUOtVhMZGYmdnd0V6+Ve4YknnuCJJ54gPT2dMWPG8O677/LQQw8hCAIZGRkcPHgQDw8P5HI5giAQGhpKcXExWVlZODk5kZ2dTYcOHVCpVOTk5HDhwgVcXFywt7fHYDDQokULAKqqqjhz5gx6vR4vLy/CwsLIyclh9erVHD9+nOTkZBwcHHB3d7/LNfK/5aaMsry8nEuXLjFgwAAA7OzsePjhh1m7di0ZGRmYTCZqamqYNm0a58+fR6lUotPp+Oijj2jevBmTJk2kpKQUuVxOUFAQXbp0YdasWZSXl7NhwwZycnIYOXIkn332GVOnTkWr1bJy5UoSExMpLS1Fp9MhlUr54YcfCAwMJD09nf/+97+UlZVhtVrx8PDA39+fcePG8cknn5CUlISnpydZWVlMn/45S5YsRaVSERkZSX5+PlOnTiU9LQ2VWo1Op2PEiBEMHz6czZs3s3z5cnx9fcnPz6e6upr//ve/PPLII9eooXuDkpISysvLad26NYIgsGPHDr7++musVitSaa2sSo8ePRg3bhwxMTEsX74cR0dH8vPz2bBhA9nZ2UyfPt22UUEulxMeHs4XX3xBfn4+EydOpKCgALlcTkVFBZMmTeL06dOsWLECs9nMwoULcXJyuu+M8qYcPWVlZeTn59OxY8d61zUajW0eMnfuXM6dO8fXX3/NnDlzkMvlpKamkpR0hrNnU5kyZQrLli5lwvjx9O3blwEDBtC6dWt+/PFHpk6dSnFxMbm5ubi6uqLX60lJSeHgwYO88cYbzJo1C51Ox5kzZ6iqqmLy5MmUl5ezcuVK5s+fz4kTJ5DJZLi7u7N06VKcnZ2ZMX0G69atQ6t1IDU1lSZNmlBTU8O3337LkSNHWPTdd2xYv57Q0FCWL1+O0Wjk8OHD5OTk0KNHD7Zu3YpOpyMpKenWa/0fQn5+Po6Ojtjb25Odnc28efNo27Yt27ZtY9SoUZw/f942VTl06BCXLl1i4MCB/P777zg6OjJ//ny8vLzYunUrkyZNoqCggODgYGpqapg+fToJCQksWrSIhQsXkpOTw4kTJ3j55ZfRaDQ8/fTTbNy4kS5dutzlWvjfUaf7elNGWVJSgiAIeHn9KS5UVVXFyZMn8fX1xWAw8OOPP6JWq1m9ejWTJ09GpVLRtm1btFotBoOBFStWkHj6NBr7Ws2TgwcP4u3tjYuLC1A7XHVzc0OhUFBRUUFOTg5vv/02vXr1wmKxIAgCnp6eJCQk2HpKNzc3/Pz8UKlUNG3aFKlUyvHjx3FxccHdw91W9qKiIjp27EhWVhZHjhzhww8/JDAwEKlMRkhIMBaLhZKSEs6dO0fnzp155plngFqxJyenvw/4cy+RkpJCWFgYMpmMlJQUysvLeeONN5BIJHh6eqJQKGjbti16vZ6MjAweeOABhgwZglKpJDc3l7NnzzJqVG3oA2dnZ+zt7XnggQdIS0sjPj6eyMhIli9fznvvvUezZs3o3bs3Fy9epLKyklatWt3t179r3NTw9fz58/j6+tabW23cuJGysjLatm1LcnIyEomEjh07EhoSQrt27QgODiYgIACr1coHH3zAggUL2L9/P/PmzSMoKIjExEReffVVmxLZmaQkQkJCsLOzQ6fTYTQa6devHwBZWVlYLBYiIiL45ZdfsFqtdO5cq2p38OBBjEYjTZs2BWpbcHd3d9sQqKSkBKvViq+vL6mpqej1eluPb7VaSUo6g7u7O6WlpVRWVjJ48GBUKhVpaWkYjcb7yvFw5swZWrdujVwutxmovb09VquV+Ph4ZDIZoaGhnDt3rl5dASQkJODl5YWnpyeCIJCamkpFRQUtWrTg0KFDVFdX06tXLxwcHOjQoQPBwcEEBgayc+dOqqur70ujvCXva9JlBiMIArt37+bjjz+mc+fO9OjRg507d6JSqejduzeRkZH17pVKpfTp04eAgAAGDBjAhQu1IeSMRiPNmv0ZROV0UhJdunRBoVCQlZWFq6srTk5OCIJAZmYmQUFBqNVqTCYTUqkUOzs7SkpKmDdvHnK53GaUx44dIzQ01LYHMSsrCx8fHxQKBVarFbPZbFNFO3r0KImJiYwfP56cnBwqKyttxp6QkICdnR2hodcXm+ReID09nccffxypVIper0elqlXpy8jIICYmhvDwcOzs7MjMzMRgMNjqCmr9DgqFAplMRmVlJUuWLCEgIAClUmnbczt06FBbI1zHhQsXsLOzI7hJ/dgp9wO35H1NTU1Fp9Px5ptvUlxcTElJCQMGDOC9995DLpfTpk0bnJyc+Pzzz2nbti0FBQV07doVrVbLnDlziI6OJjExkdatW9OuXTv0ej1qtZoffviBiooKHn/8cTIzM3n66aeRSqUkJiYSHByMUqnEZDKRnZ1NmzZtAAgODkYqlTJmzBgqKyvJzs7Gw8MDHx8fAFxdXTl69CiTJ09m8uTJ9YZkXl5ehISEMHbsWMLDw4mPj+eRRx5h0KBBLFu2DG9vb5v7PzExEVdXV3x9fW/TV9C4KSgooLq62jZFiYyMZNOmTUyePJn09HRKSkro378/8GdDd/nQvk2bNixatIiPP/6YvLw8MjMzbSOdwMBAXF1defnll4mIiCA3N5fHH3+crl27Ym9vj8lkYuKkSfTv37+eod8vyKZMmTLlSh9YrVZ0uitH0nV3d6dVq1aEhoYSHR3NE088wVNPPYXmDwFkBwcH2rVrh4NDrS5peHg47du3x9fX1/Yjb9++PSNHjsTX1xcHBwfCwsLw8vKiZcuWeHt74+HhQXR0NFqtFqVSSbt27fDz80MikeDo4EinTp1wc3PDw8ODiPBwlCoVDz74IP3796dnz540+aOljYiIwMPDg9DQUJo3b45araZDhw54enri4OBAVFQUTk5OaLVaHn30UYYOHYpGo8HOzo7o6GiCgoIAUCqVdOvW7Z4Yvjo6Ol7z6FZ1dTWhoaG0bdsWlUqFr48PTYKD0Wg09O/fn0ceeYTOnTvj7OzcoK6g9jcSHByMVqule/fuXLhwgQcffJCoqCicnZ2JiopCpVIhl8tp0aIFHTt2RKVS4e3tTXBwMC4uLrRq1eofPYeXSCQ3dErkZG4FhZXVf6P7ajaTm3v9UauuRF3WfxXuFQThimK+V7t+vc+62r3Xyvdq5bxX8ff3Jz8//6aObl3vdxQTE0N2djbt27fn4MGDxMTEMGfOnHpzxb/7fVzp+j8NqVSKv7//Dd93RzekX61Sb/T6rTzrevL9p3/5/0uut640Gg2HDx9mz549aLVa3n//fdtmjWvldb9/H3e0pxRpnNxKT3kjmEwmqqqq0Gg09cIA3C/caE8p6r6K3HFUKpVtiUTk2ojKAyIijRTRKEVEGhni8FVEpJEgKg+IiDRSrtpTSiQScZJ+D2NnZ4dMJrt2QpGb5kaXduq8r1ddEhEEAbPZfOslE2l0KBQKWxRlkTvLjSwF1UVyvmpPKQgCBoPhthRMpHHh6OiI0WgUFdLvMBKJ5KbWZ8U5pYhII0P0voqINBJE76uISCNF7ClFRBoJ9/3eV4PBgNVqRavV3u2iiIgAt2nva3V19RUPy1osFvR6PTqdjqqqqmvmodPpqKys/NslmJqaGvR6PXq9nurq6r/N02g0otPpbIb3V6xWKwMGDGDChAm2a2azmcrKygbLBIIgYDKZ0Ol06PX6+2KZKDY2lkWLFt2RvNesWcPu3bvvSN73CjfVU1osFpKSkli6dCkFBQV89NFHtpP+lZWVrFy5kvXr1yOXy/H392fs2LE2Ad7LuXTpEjNnzuTMmTPY2dnRrVs3RowYYVO0q6OsrIxFixaxZ88elEolLVq0YPTo0Q2U2AVB4OTJk3z11VcUFhai1Wrp168fw4YNQ6lU2tKdOHGC5ORkxo8fD8C5c+f4+eefiY+PZ+7cuXh6etrS7tmzh9WrV1NQUIBUKmXw4MEMHjz4ZqrtH8Pu3btZtmwZL7300m3Pe/HixbRs2ZJevXrd9rzvFW7KKE+ePMnbb7+NSqWioKCg3nrmrl27mDFjBpMmTSIgIIBp06Yxbtw4NmzY0EBZfOLEiTbpSLPZzLhx42jSpAkDBw6stxti69atxMTEMH78eJRKJTNmzECtVjNx4sR6+RUUFPDhhx9iZ2fHxIkTOXToEJMmTSIoKMj2IxAEge3bt+Pl5UX37t2Jj49n3LhxSCQSMjMz6/XCCQkJvPXWW/Tr148XX3wRq9UqxtEQuWPUeV9vyihdXV1tKteTJk2yGZDJZOL333+nY8eOPPvsswDk5bxTCzsAABNBSURBVOUxfvx4EhMTad++vS2PrKwsNm7cyJdffsnDDz8MwObNm9m7dy+PPfZYvUXXn3/+mb59+9KvXz9kMhkJCQksWbKkgVEmJiaSlJTE3r178fPzIzo6mjlz5rBjxw6bURYWFnL06FGee+451Go1Go2GDz/8EEdHR55//vl6+S1YsACVSsXEiRPRaDT35Yl4wSqQlp7Gd999R0FBAa1ateKVV16x6TFdvHiR+fPnk5WVRe/evRk6dChlZWV89913JCYm4ubmxptvvmlTFxS5Njc1pwwODqZDhw4NfqQmk4n8/Hyb0hzUCleZzWaKiorqpc3IyEAikdSTlWzatCmFhYUN5oGZmZkEBAQgl8uRSCT4+vpSVlbW4OR8UVERGo3GNqyVy+VERkbWyzMtLY3c3FyGDBkCQHh4OF27dm3wjtXV1Zw6dQo/Pz/Wrl3L7Nmz2bhhI4WFhTdaXf9odv62k759+1JWVkZQUBA///wzzz//PCUlJVy4cIGBAweSmZlJWFgY27dv59ixY8ybN4+srCw6duzIpUuXeOyxx8jPz7/br9LoKdRXU6ivvr3eV7PZjMFgwP4P1XMAe3t7BEFo4PCpqKgAqLfpXaPRYDKZGuSr1+vrDX2VSiUSiQSj0VivR/3r31C7paympgaLxYJUKuXAgQO0aNHimvEp9Ho9JpOJs2fPcvr0aezs7Pj222959tlnGTdu3H2xWd9kMrF+/XoiIyOZNWsW9vb29O7dm5EjR5KQkMCxY8cA+Pzzz/H396egoACVSkWzZs1wdnZGKpXSqlUrnn/+eTIyMuop6os05JZ0X6+GTCZDqVSi1+tt16qrq5FKpajV6npp64Y/RqPRdq2mpsZ2/XKUSmU9o64TUL7c+KH25MNfjdpkMuHq6mqLm7l161Zeeumla+5JrAtg88QTT9jiY/r4+LB161aKi4tvOtzfPwmdTkdeXp5NjxWgW9euVFVVUVRURGJiIu7u7jYdmjoH2aVLlxg+fDjx8fHU1NSgVqvvuB7QvcRt3dFjZ2eHm5sbiYmJtqWFEydOoFAo8PPzw2q12pxCdaLG6el/xp9MSkoiICAAmUxGTU2N7Yv08fEhOzsbs9mMxWLh4sWLtnSCINgM28XFBZPJRFZWFlDrCT59+jSBgYFIJBKOxB7BYDDQunXra84PtVqtLURf3dBXLpfbjPV+QKlUolarycjIsH2fFzMzUSgUODk54eLiYlumAmzTlLFjx6LVatmxYwc//fTT3XyFfyQ31VOWlZVx8uRJEhISMBgMHDlyhJqaGqKiomjfvj2ffvop33//Pb6+vixevJjo6GjCwsJYt24d27Zt45Np02xCv6tWrcLT05OioiKOHj3K1KlTkclkfPjhhzRt2pQhQ4YwYMAAVq5cScuWLZFKpWzevJmhQ4cCcPz4cRYuXMj48eNp0aIF3t7eTJgwgVGjRrFv3z50Op1NmXvWV7OIiIggLCzM9i6lpaUkJibaYoUcOnSIoKAg2rVrR+/evfnhhx9YtWoVTk5OLFmyhO7du+Pq6nobqr7xo9Vqadu2LfPnz2fZsmUEBASwcOFCAgICiIyMxGq1smHDBubPn0/79u3Zu3cv7dq1o7KyEh8fH6qqqti+ffvdfo1/DLfkfT158iRDhgyx9VzvvPMO3bt3Z/369QwdOpQzZ84wceJELBYLXbt2ZfHixSgUClJTU9m1axeGiRPxVihYuXIlQ4YM4YUXXkAQBN577z369u2LRCIhNjbWFl1r+PDhpKSk8OqrryKRSBg6dCjPPfccUOvd3bVrF6NHj6ZNmzZM//xzRo4axeDBg3F0dGTFihV06NCBixcv8ttvv/HVV1/VG0rHx8czatQodDodFouFMWPGEBoaysaNG3nn7XdISUnh9ddft8VAuR/mk1KpFJlMhlQqZfTo0WRlZTF+/HisVivh4eEsXrwYHx8fvLy8GDt2LLNmzaK6uppOnToxYsQIXnnlFcaNG8dvv/3Go48+ikQiscUMqctX5Opc9ZDz34UtuB6qqqqorKy0Tfjr8qypqam3kC8IAqWlpSiVynpzxLp54+Wn4ysqKjCbzbi4uNiGkIIgUFNTU88RVJenRqOxGdC3337L559/TlxcHB4eHtf9HoIgUFFRgZ2dXYN58T8VR0dH9Hr9Vc9TWq1WLBZLvXm3yWSiuroaBweHBsP3yspKqqqq6o0gTCYTVaYqHJ0cqa6uxs7ODolEcsXv9V7lRsMWXFN54FaNsjFhtVpZtGgRVVVVvPbaa3e7OHedaxmlyO3hRo3ymsoD9xJSqZQRI0aIwyaRfwT3hVECDbb4iYg0Vu4boxQRaeyIygMiIo0UsacUEWkk3PfKAyIijQ0x6paISCPlb8MW/HXDt8i9gUQiuWc2QtyLXHXzgMViaXAGUuTewMPDg9LS0vtCb+huIpFI6knLXC9/G7bgWqJXIv9cqqurxeNUd5ib3awiOnpERBoJovdVRKSRIXpfRUQaKfesUdaJKIvODJF/GjdtlIIgUFZWRkVFxTWDj5rNZkpKSq6pbC4IAnq9npKSkmseKzKZTBQXF1/VWZGfn8/777/PqVOngNrjW6Wlpeh0OjFYqkij5IWO/swYEHFzc0qDwcDy5cvZuXMnEomEzp0719MCvZysrCymTZtGQUEBWq2WYcOG0bdv3yvmu2PHDpYtW4bRaCQsLIxXX33VprxehyAIxMXFMW/ePEpKSvDy8mLMmDFERUXVS5eUlMSxY8f44IMP0Ol0LF68mH379qFQKOjWrRuvvPKKTUxL5PZQXl5OVVUVHh4e942O0Z3gpnrKnTt3smDBAh599FEGDhzIypUrWblyZYN0FRUVvPbaa6SlpfHCCy/g6OjIm2++yYkTJxqkzczMZNy4cYSGhjJ27FiOHz/OnDlzqPqLOl1eXh5Tp05FIpEwevRoqqqqeOWVV7BaLLY0ZrOZ2NhY2rVrh6OjIxs2bGD58uU89dRT9OnTh8WLF7Nu7dqbefX7hrrRxNVGFYIgNBjNfPfdd3z88cdUVlZeMa0gCFfN91p/Xy2/v16//Bk3ev/d5pZ0Xzdt2sRTTz3F8OHDgVpFujVr1jBy5Mh66U6ePEl2djY//PADkZGRdO/end9//539+/fTtm3bemkXLVpEeHg4b7zxBq6urlRXV/Ppp59iMBpRXqaJc/bsWYxGI5MnTyYgIAAHBwf+7//+j0OHD9tElQ0GA4cPH+bVV1/FYrGwY8cOXnzxRYYMGUJNTQ1JSUksW76cp/8QZBapz6lTp8jLy0Or1ZKUlISLiws9e/bE3d2dyspKDhw4wPnz5xEEgaioKKKjo4mLiyMxMZGSkhLWrFlDdHQ0LVu2JC0tjdjYWCoqKnB0dEQulxMeHk5GRga9evXC2dmZ7Oxs9uzZQ58+ffD09KSkuJjde/bQs2dP3Nzc6pUtISGBU6dOUVxcjI+PD927d8fHx4fCwkJ27txpS+ft7U3XLl2wu0x6BiA3N5fDhw+TnZ2Ng4MDnTt3pnnz5o3iAPwteV/T09MJCwtDoVCgUCho0qQJFy9exHJZbwW1FaBQKGzBfZydnWnatCk5OTkNWqnY2FgCAwNtwX18fX1rdV7+soHhzJkzBAYG4uDgAEBAQACOjo4kJyfb0sTFxSEIAuHh4QiCQGZmJs2aNUMikWBnZ0dISAhpaWkNyitSy65duxg/fjyzZs0iPT2dqVOnMm/ePCwWC/Hx8SxduhSDwUBWVhYTJkzg2LFjFBUVUVZWhl6v5/z58+gqKsjNzWXq1KkcOHAAvV7P119/zaZNmygsLGTx4sU2pbsdO3YwZcoUduzYAcC27duZP39+vRg1dcycOZPk5GSkUilz585l8eLFNv2g1NRUUlNT+fjjj1mxYgXVV/A3/Prrr+zevRuFQsHBgweZNm2aTRi8sXBTPaVOp6u3d1Kj0dicNE5OTrbrer0etVpdrxVydna2eUUvF2a6dOkSXbt2tc1F6gxep9Ph7e1tS1dcXIy9vb1tPqhSqZDL5ZSVldnSLFmyhIiICAIDAxEEAYPBUE+Bzt7eHovFgsFgsBm3SH0MBgMzZswgODgYV1dXW2/XrVs3unXrZkv3yCOPkJaWxogRI0hPT+fChQuMHz8erVbLgQMHSE1N5eDBg8hkMs6ePYuzszMPPfQQMTExrFq1iieffJJTp05hNpvZt28fzzzzDJs2bSIkJISAgIAG5VqyZInt/15eXmzatImKigr8/PyYMmUK+/fvZ9myZQwcOPCKsUdHjBjBiBEjAEhOTmb06NEYDIZGFbjppoxSoVDU86TWhQT46yZnOzu7egrogE157q9qZg4ODvXS1vWkf3UeqdVqTCaTrZezWCxYrVabcWVkZHDkyBGmT59uK6dcLq/npTWbzUil0nteKvJWcHJyIjg4GIAmTZqwf/9+qqqq0Ol0xMTEkJKSQk1NDSUlJVdddnJ0dEShULB69Wo8PDzIycnhwQcfRCaT8cADDzBx4kTi4+PJycnhrbfeYtu2bRw+fJizZ88yadIk1q1bx6ZNm7BarbbAQklJSezZs4eKigouXLiA1Wq1zW3z8vKYPXs2jz32GP369ePkyZPMmjULq9WKQqFg7ty55OXlsXnzZvLy8igqKmpU3vhb0n11cXGhoKAAq9WKRCLh0qVLeHl5NdDBcXR0xGAwUFxcjJubG2azmfT0dNq0adNgDB8UFER+fj4mkwmVSkVZWdkVDd3X15cDBw7YhrV1ofhCQ0MBiImJwdHR0Ta/lEgkaLVaCgoKgNqlkezsbAICAq4ZukCklssb0J9++omffvqJN998E29v7wZOu8sdLSaTCXt7ew4dOoTFYqFv37488cQTALZR0bp165BKpTzzzDNs3LiRNWvWANCjRw+MRqOtt3RyckKv1zN+/Hh69epF//79iYuL49ChQ0gkEiwWCxs3bqSqqopJkyYhl8tp0qQJY8aMAWr3oSoUCr755huMRiODBw+muLi43rSnsXBTc8quXbvyyy+/oNPpbJP0f//73wCkpKQwefJkCgsLad68OVqtltmzZ2O1Wlm9ejVlZWV07twZgI0bN7L4u9o5wcCBA0lOTubUqVNYrVZWrlxJVFQUarWa06dP883X36DX62nfvj2ZmZkcP34cs9nM7t27qaqqokePHpSXl/P777/z2GOP2TRIZTIZHTp0YP369bZG4fDhwzz99NO3qQrvL06ePImjoyO9e/fGwcHB1thB7aimqKgIo9FoO2VUUlJCSEgI3bp1o127drZGNjAwkKioKGJiYggMDMTJyYmwsDC2bNlCdHQ0bm5u+Pv7Ex0dTXR0NM2bN6eoqIji4mI6duxIp06dSE1NtU13CgsLWbJkCS+//LIteJOzs7Pt/g4dOiCTyUhJSaFFixZ0794dq9VaL+7N3eaWvK9PP/006enpPPnkk0ilUpo1a2bzxGZkZHD48GGefPJJWrZsyYsvvsiqVavo06cPAGPHjqVTp04AtjDbAw0DGThwIEeOHOH9999HJpPh7OzMu+++i1qtJi0tjf0H9jPsmWEEBgby/PPPM3PmTObMmYNUKuWTTz5BoVCQmJhIQUEBzzzzjK2sUqmUoUOHMn36dPr06YNMJiMyMtIWP1OkIU5OTragPVAbvsDb2xuZTMawYUP5+ONptjpu1qyZTdu0a9eubNiwgeeee47nnnuOsLAwtFqtzWOam5tLVVUVP//8Mz4+PgwfPpyvv/6aTp06IZfLefjhh0lOTmbQoEFXLFfz5s3p3Lkz33zzDQsXLsTJyQlPT09bzFKlUsnXX3/N7Nmzadq0KRMmTGgQiGnQoCf56aeVHDx4EJPJRHBwcKMRhq7zvl71PKXZbCY3N/eKNwuCQGFhIZmZmQCEhITYeqby8nKysrJo1qwZdnZ2WCwWzp8/T0lJCQ4ODoSHh9uGrpmZmVgsFoKCgpBKpeh0OjIyMjAYDPj7++Pn54dEIqGsrIyCggJCQkKQy+UYjUYuXrxIaWkpXl5eBAYGArUq6HXewb+WNz8/n6ysLGQyGaGhofUcUvcb/v7+5Ofn/+1uqOLiYpvXvKysjPz8fEJDQ5HL5Zw7d862cUMqlaJUKvHw8Kj3XTdt2pR169bx66+/smrVKmQyGb/88guvv/46P/74I506dcJgMJCWlkZQUBDOzs5UVFSQkZFB8+bNrzrfLy8vJz093eb1LywsJDAwkKqqKjIyMmzp1Go1gYGBDaZUJpOJ9PR0jEajzcMfEBBwRyRIpVJpvcbtWtSJMd+UUTZGKisrefvtt+nTpw8DBw6828Vp1FzLKG8XGzZsYPLkybRv3x5nZ2eOHj2Kg4MD69atuy9ULe57oxS5fv5XRllTU8OxY8c4evQogiAQHBxMv3796sWSuZe5UaOsQzTK+5D/lVHe79ysUYo7skVEGgmi8oCISCNDVB4QEWmkiEYpItLIuKqjR0RE5O4g9pQiIo0M0dEjItJIEL2vIiKNDNH7KiLSSBGNUkSkkSF6X0VEGhliTyki0sgQHT0iIo0E0fsqItLIqPO+XtMo39mcTErBndUx+e9DTYnwaigHKCLyT0WjkKGU39zs8P8DTIaTQxugoQsAAAAASUVORK5CYII=;" vertex="1" parent="eHbJ4gl2c6HzNtmVkAhj-9">
          <mxGeometry x="415" y="465" width="229" height="116" as="geometry" />
        </mxCell>
        <mxCell id="eHbJ4gl2c6HzNtmVkAhj-18" value="" style="sketch=0;outlineConnect=0;fontColor=#232F3E;gradientColor=none;fillColor=#4D27AA;strokeColor=none;dashed=0;verticalLabelPosition=bottom;verticalAlign=top;align=center;html=1;fontSize=12;fontStyle=0;aspect=fixed;pointerEvents=1;shape=mxgraph.aws4.internet_gateway;" vertex="1" parent="eHbJ4gl2c6HzNtmVkAhj-11">
          <mxGeometry x="346" y="-20" width="78" height="78" as="geometry" />
        </mxCell>
      </root>
    </mxGraphModel>
  </diagram>
</mxfile>
